<svg width="1886" height="447" viewBox="0 0 1886 447" fill="none" xmlns="http://www.w3.org/2000/svg">
<path d="M1835.62 2.05152L809.381 110.448C800.869 111.347 794.691 118.977 795.581 127.489L827.331 431.227C828.221 439.74 835.842 445.912 844.354 445.013L1870.59 336.616C1879.1 335.717 1885.28 328.087 1884.39 319.575L1852.64 15.8367C1851.75 7.32432 1844.13 1.1525 1835.62 2.05152Z" fill="#FFD500"/>
<path opacity="0.2" d="M1849.84 37.2934L818.553 73.4943C809.999 73.7946 803.306 80.9722 803.603 89.5261L814.207 394.762C814.504 403.316 821.679 410.007 830.233 409.707L1861.52 373.506C1870.08 373.206 1876.77 366.028 1876.47 357.474L1865.87 52.2379C1865.57 43.684 1858.4 36.9932 1849.84 37.2934Z" fill="#1E0F00"/>
<path d="M1855.4 54.9233H823.654C815.095 54.9233 808.156 61.8617 808.156 70.4207V376.643C808.156 385.202 815.095 392.14 823.654 392.14H1855.4C1863.96 392.14 1870.9 385.202 1870.9 376.643V70.4207C1870.9 61.8617 1863.96 54.9233 1855.4 54.9233Z" fill="#005BBB"/>
<path d="M0.878967 128.275H53.2295C74.1075 128.275 89.688 132.034 100.283 139.238C110.878 146.756 116.175 159.599 116.175 178.393C116.175 191.235 114.617 201.259 111.189 208.776C107.761 216.294 101.841 222.246 92.8041 226.318L118.668 318.722H75.6655L54.7876 233.209H42.9464V318.722H0.878967V128.275ZM54.476 209.09C62.8895 209.09 68.8101 206.897 72.2378 202.512C75.6655 198.126 77.2236 191.235 77.2236 182.465C77.2236 173.694 75.6655 167.429 72.5494 163.044C69.4333 158.659 64.1359 156.466 56.3457 156.466H42.6348V209.09H54.476Z" fill="#005BBB"/>
<path d="M141.417 128.275H226.798V157.093H183.173V204.391H216.204V233.522H183.173V290.531H227.11V319.035H141.417V128.275Z" fill="#005BBB"/>
<path d="M248.609 128.275H293.481L314.359 239.16L336.795 128.275H380.109L383.537 319.035H353.934L350.506 192.175L328.382 319.035H301.895L278.212 190.922L275.408 318.722H245.182L248.609 128.275Z" fill="#005BBB"/>
<path d="M421.552 305.879C412.827 295.229 408.465 279.567 408.465 258.894V188.102C408.465 167.429 412.827 151.767 421.552 141.43C430.278 131.094 444.923 125.769 465.49 125.769C486.056 125.769 500.701 131.094 509.738 141.43C518.463 152.08 522.826 167.429 522.826 188.102V258.894C522.826 279.567 518.463 295.229 509.738 305.879C501.013 316.529 486.056 321.854 465.49 321.854C444.923 321.854 430.278 316.529 421.552 305.879ZM477.019 285.832C478.889 281.76 479.824 276.435 479.824 269.544V177.766C479.824 170.561 478.889 165.236 477.019 161.164C475.149 157.092 471.099 155.213 465.178 155.213C459.569 155.213 455.83 157.092 453.96 161.164C452.09 165.236 451.155 170.561 451.155 177.452V269.23C451.155 276.122 452.09 281.446 453.648 285.519C455.518 289.591 459.257 291.47 465.178 291.47C471.099 291.783 475.149 289.904 477.019 285.832Z" fill="#005BBB"/>
<path d="M563.334 159.599H534.666V128.275H633.758V159.599H605.402V319.035H563.334V159.599Z" fill="#005BBB"/>
<path d="M736.282 290.531V319.035H651.524V128.275H735.658V156.78H692.345V204.391H725.375V233.522H692.345V290.531H736.282Z" fill="#005BBB"/>
<path d="M925.737 128.275H967.804V205.331H997.096V128.275H1039.16V319.035H997.096V235.401H967.804V318.722H925.737V128.275Z" fill="#FBFBFD"/>
<path d="M1067.83 128.275H1153.21V157.093H1109.9V204.391H1142.93V233.522H1109.9V290.531H1153.84V319.035H1068.14V128.275H1067.83Z" fill="#FBFBFD"/>
<path d="M1172.53 128.275H1214.6V290.531H1258.22V319.035H1172.53V128.275Z" fill="#FBFBFD"/>
<path d="M1276.3 128.275H1339.87C1356.7 128.275 1369.16 132.974 1377.26 142.371C1385.68 151.768 1389.73 165.55 1389.73 183.404C1389.73 203.765 1385.05 217.86 1375.39 226.004C1365.73 233.835 1352.33 237.907 1334.88 237.907H1318.06V319.035H1275.99V128.275H1276.3ZM1332.39 208.463C1339.87 208.463 1344.54 206.584 1347.04 202.512C1349.53 198.44 1350.77 191.862 1350.77 182.778C1350.77 174.321 1349.53 168.056 1347.35 163.984C1344.85 159.912 1339.87 157.719 1332.39 157.719H1318.68V208.463H1332.39Z" fill="#FBFBFD"/>
<path d="M1409.98 128.275H1495.36V157.093H1452.05V204.391H1485.08V233.522H1452.05V290.531H1495.98V319.035H1410.29V128.275H1409.98Z" fill="#FBFBFD"/>
<path d="M1514.68 128.275H1567.03C1587.91 128.275 1603.49 132.034 1614.09 139.238C1624.68 146.756 1629.98 159.599 1629.98 178.393C1629.98 191.235 1628.42 201.259 1624.99 208.776C1621.56 216.294 1615.64 222.246 1606.61 226.318L1632.47 318.722H1589.16L1568.28 233.209H1556.44V318.722H1514.37V128.275H1514.68ZM1568.28 209.09C1576.69 209.09 1582.61 206.897 1586.04 202.512C1589.47 198.126 1591.03 191.235 1591.03 182.465C1591.03 173.694 1589.47 167.429 1586.35 163.044C1583.24 158.659 1577.94 156.466 1570.15 156.466H1556.44V209.09H1568.28Z" fill="#FBFBFD"/>
<path d="M1664.25 307.132C1655.53 297.421 1650.85 282.073 1650.23 261.086L1686.07 255.761C1686.07 267.977 1687.62 276.435 1690.43 281.76C1693.23 287.085 1697.28 289.591 1702.58 289.591C1709.75 289.591 1713.18 284.892 1713.18 275.808C1713.18 268.291 1711.62 262.026 1708.19 256.701C1704.76 251.376 1699.47 245.738 1692.3 239.473L1675.78 225.064C1667.68 218.173 1661.45 210.969 1657.09 203.138C1652.72 195.307 1650.54 186.223 1650.54 175.573C1650.54 159.598 1655.22 147.382 1664.57 138.611C1673.91 129.841 1687 125.769 1703.52 125.769C1721.59 125.769 1733.74 131.094 1740.29 141.43C1746.83 152.08 1750.26 164.61 1750.57 179.645L1714.42 184.03C1714.11 174.007 1713.18 167.116 1711.62 162.73C1710.06 158.345 1706.94 156.152 1701.96 156.152C1698.22 156.152 1695.73 157.719 1693.55 160.851C1691.68 163.983 1690.74 167.429 1690.74 171.188C1690.74 177.766 1692.3 183.091 1695.1 187.476C1697.91 191.861 1702.58 196.873 1709.13 202.511L1724.71 216.294C1734.05 224.438 1741.22 232.895 1746.52 241.666C1751.82 250.749 1754.31 261.086 1754.31 273.302C1754.31 282.386 1752.13 290.217 1748.08 297.735C1744.03 304.939 1738.11 310.891 1730.63 314.963C1723.15 319.348 1714.42 321.227 1704.76 321.227C1686.38 321.854 1672.98 316.842 1664.25 307.132Z" fill="#FBFBFD"/>
</svg>
